HIERARCHY
ROOT Hips
{
	OFFSET -3.958830 18.904000 13.208200
	CHANNELS 6 Xposition Yposition Zposition Zrotation Yrotation Xrotation 
	JOINT LHipJoint
	{
		OFFSET 0.000000 0.000000 0.000000
		CHANNELS 3 Zrotation Yrotation Xrotation
		JOINT LeftUpLeg
		{
			OFFSET 1.800000 -1.400000 0.085000
			CHANNELS 3 Zrotation Yrotation Xrotation
			JOINT LeftLeg
			{
				OFFSET 2.215000 -6.000000 0.000000
				CHANNELS 3 Zrotation Yrotation Xrotation
				JOINT LeftFoot
				{
					OFFSET 2.500000 -6.900000 0.000000
					CHANNELS 3 Zrotation Yrotation Xrotation
					JOINT LeftToeBase
					{
						OFFSET 0.200000 -0.500000 1.950000
						CHANNELS 3 Zrotation Yrotation Xrotation
						End Site
						{
							OFFSET 0.000000 0.000000 0.000000
						}
					}
				}
			}
		}
	}
	JOINT RHipJoint
	{
		OFFSET 0.000000 0.000000 0.000000
		CHANNELS 3 Zrotation Yrotation Xrotation
		JOINT RightUpLeg
		{
			OFFSET -1.800000 -1.400000 0.085000
			CHANNELS 3 Zrotation Yrotation Xrotation
			JOINT RightLeg
			{
				OFFSET -2.215000 -6.000000 0.000000
				CHANNELS 3 Zrotation Yrotation Xrotation
				JOINT RightFoot
				{
					OFFSET -2.500000 -6.900000 0.000000
					CHANNELS 3 Zrotation Yrotation Xrotation
					JOINT RightToeBase
					{
						OFFSET -0.200000 -0.500000 1.950000
						CHANNELS 3 Zrotation Yrotation Xrotation
						End Site
						{
							OFFSET 0.000000 0.000000 0.000000
						}
					}
				}
			}
		}
	}
	JOINT LowerBack
	{
		OFFSET 0.000000 0.000000 0.000000
		CHANNELS 3 Zrotation Yrotation Xrotation
		JOINT Spine
		{
			OFFSET -0.087000 1.940000 -0.288900
			CHANNELS 3 Zrotation Yrotation Xrotation
			JOINT Spine1
			{
				OFFSET 0.000000 1.950000 0.060000
				CHANNELS 3 Zrotation Yrotation Xrotation
				JOINT Neck
				{
					OFFSET 0.000000 0.000000 0.000000
					CHANNELS 3 Zrotation Yrotation Xrotation
					JOINT Neck1
					{
						OFFSET 0.000000 1.600000 0.340000
						CHANNELS 3 Zrotation Yrotation Xrotation
						JOINT Head
						{
							OFFSET 0.000000 1.667000 -0.240000
							CHANNELS 3 Zrotation Yrotation Xrotation
							End Site
							{
								OFFSET 0.000000 0.000000 0.000000
							}
						}
					}
				}
				JOINT LeftShoulder
				{
					OFFSET 0.000000 0.000000 0.000000
					CHANNELS 3 Zrotation Yrotation Xrotation
					JOINT LeftArm
					{
						OFFSET 2.700000 1.550000 -0.730000
						CHANNELS 3 Zrotation Yrotation Xrotation
						JOINT LeftForeArm
						{
							OFFSET 5.450000 0.000000 0.000000
							CHANNELS 3 Zrotation Yrotation Xrotation
							JOINT LeftHand
							{
								OFFSET 3.450000 0.000000 0.000000
								CHANNELS 3 Zrotation Yrotation Xrotation
								JOINT LeftHandIndex1
								{
									OFFSET 0.750000 0.000000 0.000000
									CHANNELS 3 Zrotation Yrotation Xrotation
									End Site
									{
										OFFSET 0.000000 0.000000 0.000000
									}
								}
							}
						}
					}
				}
				JOINT RightShoulder
				{
					OFFSET 0.000000 0.000000 0.000000
					CHANNELS 3 Zrotation Yrotation Xrotation
					JOINT RightArm
					{
						OFFSET -2.700000 1.550000 -0.730000
						CHANNELS 3 Zrotation Yrotation Xrotation
						JOINT RightForeArm
						{
							OFFSET -5.450000 0.000000 0.000000
							CHANNELS 3 Zrotation Yrotation Xrotation
							JOINT RightHand
							{
								OFFSET -3.450000 0.000000 0.000000
								CHANNELS 3 Zrotation Yrotation Xrotation
								JOINT RightHandIndex1
								{
									OFFSET -0.750000 0.000000 0.000000
									CHANNELS 3 Zrotation Yrotation Xrotation
									End Site
									{
										OFFSET 0.000000 0.000000 0.000000
									}
								}
							}
						}
					}
				}
			}
		}
	}
}
MOTION
Frames: 10
Frame Time: 0.016667
1.015450 17.007680 -3.873320 -3.294606 -8.614693 -5.443693 -14.963975 14.151969 3.369300 -0.472728 -2.288620 -15.133666 -2.280614 4.832840 17.517668 -0.031290 3.336241 3.368447 0.043640 -0.045940 0.147780 18.141131 -11.347337 2.890856 -2.335971 1.145870 -12.702894 3.311085 -4.646773 19.709024 -0.006958 -3.337679 3.203544 -0.021810 0.032490 0.060120 -3.437739 -2.444582 -8.079126 10.624838 -2.352451 21.744539 -1.978714 1.055328 -10.045829 1.645088 -0.103570 -8.654068 -3.596562 2.992450 48.941852 -4.336480 4.758090 8.874330 -6.776858 4.521880 -1.028224 -3.813928 2.416195 -0.160167 135.061884 -7.637260 -8.750221 -3.890857 3.516428 -0.002330 0.119360 -0.037420 -0.004930 3.693700 -2.816581 4.802361 22.238188 -8.959858 -6.045216 -116.830731 28.166882 -43.011933 2.429397 -2.091002 -0.022330 -0.072430 -0.053360 -0.065040 
1.038190 16.964880 -3.957570 -2.955484 -9.268925 -8.073132 -14.931889 14.033983 3.275047 -0.881644 -1.939651 -12.830741 -2.121181 4.918900 17.917821 -0.018620 3.474339 3.329720 0.095590 0.030810 0.166390 18.209432 -11.474721 2.825027 -2.000810 0.838623 -12.163768 2.124194 -4.603833 20.889673 -0.049514 -3.468000 3.157709 0.030590 0.028950 0.064520 -3.574831 -2.064036 -7.906680 10.142787 -2.528988 24.427328 -3.104093 0.481806 -4.259485 1.546434 0.395183 -8.186089 -2.144254 2.391516 46.033052 -3.720940 4.556050 5.606030 -7.181353 4.343131 -0.622244 -4.805991 0.908907 0.800897 140.129708 -12.040697 -24.084957 -3.854460 3.460731 -0.004020 0.116610 -0.025680 0.011750 4.132977 -3.536978 4.510080 22.515397 -7.056094 -5.517569 -116.296748 36.561362 -56.289128 2.353320 -1.894527 -0.013600 -0.050510 -0.072150 -0.062020 
1.085180 16.936170 -4.078810 -3.160856 -9.813895 -10.454628 -15.005221 14.052825 3.159654 -0.624040 -1.686658 -11.612370 -1.929305 5.151587 19.248950 -0.035853 3.730625 3.241775 0.179100 0.140280 0.209410 18.193264 -11.412191 2.710701 -1.491065 0.834009 -12.623312 0.877639 -4.590980 23.473927 -0.096115 -3.651032 3.079380 0.117860 0.023300 0.079320 -3.452589 -2.232161 -7.669906 9.701923 -1.959241 27.284174 -2.477270 1.022150 4.223223 1.772878 0.662766 -7.587914 -1.627624 0.620833 39.867494 -4.068770 3.495890 -0.307930 -6.229558 5.596855 0.668874 -10.200277 -4.830974 4.613017 142.143434 -22.353935 -55.075344 -3.893406 3.265441 -0.006250 0.118790 -0.016190 0.029930 2.661135 -5.342593 3.383675 22.598769 -6.251410 -5.965893 -115.045911 44.382141 -67.113618 2.274701 -1.711867 -0.007700 -0.013930 -0.095060 -0.066240 
1.140680 16.951480 -4.222300 -3.859316 -10.500107 -10.910954 -15.093193 14.134049 3.103503 0.022055 -1.711277 -12.600152 -2.136124 5.370905 20.106128 -0.097802 3.827862 3.175038 0.268830 0.251490 0.284100 18.144535 -11.177739 2.713301 -0.774174 1.780685 -16.412432 0.407182 -4.744983 27.732822 -0.151046 -3.808461 2.977559 0.194700 -0.028050 0.081300 -3.256605 -2.691362 -7.578141 9.574083 -2.062744 29.647369 -1.309005 1.078245 9.888576 2.171219 -0.137506 -7.722713 -3.022674 -0.174362 36.631047 -4.863450 3.141180 -5.980350 -5.042827 6.332630 1.626006 -16.565134 -7.892016 6.181067 140.498727 -38.031463 -87.957304 -3.890995 3.178326 0.035490 0.083530 0.029840 0.026840 0.564057 -5.554004 3.274782 22.459116 -5.265057 -5.873288 -112.965387 52.629156 -75.936392 2.203690 -1.324674 -0.001470 0.022890 -0.119560 -0.090090 
1.189200 16.977820 -4.347460 -4.733090 -8.923942 -10.281022 -15.177034 14.219087 3.110544 0.047580 -2.048771 -14.900420 -1.677774 5.166579 20.269158 -0.173562 3.666670 3.187468 0.346080 0.332250 0.374160 18.094480 -10.794843 2.839956 -1.282953 3.068868 -21.951620 1.451639 -5.750682 33.113894 -0.275789 -4.243247 2.760772 0.230070 -0.124830 0.079510 -3.112966 -3.385740 -7.638050 9.630568 -4.040200 32.169411 -0.594647 -0.914459 11.690492 2.660566 -2.137195 -8.429430 -6.456999 1.248522 35.104939 -6.467850 4.102220 -10.842550 -5.332532 5.384563 2.103611 -21.097768 -6.258428 3.629727 138.055866 -57.574036 -115.405467 -3.815093 3.222681 0.120440 0.007600 0.112440 0.013830 -0.018307 -3.489808 4.047487 21.095038 -4.228984 -5.564815 -114.554782 58.530843 -86.950959 2.248002 -1.019051 0.010930 0.033930 -0.153510 -0.126420 
1.243410 17.003150 -4.490220 -6.268668 -6.682086 -9.644110 -15.214332 14.144721 3.008193 0.604742 -2.230628 -16.708867 -1.210790 4.832285 19.222790 -0.245438 3.374323 3.242612 0.418510 0.402060 0.455710 18.125186 -10.264321 3.244634 -2.535978 4.936996 -29.043599 3.476183 -7.932600 40.833393 -0.543032 -5.374762 2.295341 0.248310 -0.241810 0.073180 -3.173033 -3.904589 -7.783630 11.520385 -7.053293 35.651621 -0.514893 -3.554366 11.758142 3.047929 -4.575720 -9.136920 -10.689990 3.510788 34.139509 -7.632510 4.606860 -15.280170 -6.139618 3.893648 2.526901 -25.866061 -4.836024 0.549737 120.757729 -76.981038 -117.236358 -3.800140 2.805862 0.212200 -0.095040 0.200570 -0.008840 0.188747 -0.789359 4.554424 20.705530 -2.156909 -6.231311 -120.809448 60.997470 -101.328171 2.367059 -1.331924 0.037180 0.027650 -0.182750 -0.157260 
1.327530 17.021080 -4.621370 -8.753666 -6.246829 -8.711233 -15.215990 13.885577 2.762555 2.095916 -2.341225 -18.787731 -0.536623 4.544867 18.632869 -0.297810 3.135316 3.279581 0.472750 0.458820 0.507490 18.240160 -9.560155 3.948604 -4.212826 7.463494 -36.801578 6.572059 -11.251655 48.807201 -0.927690 -7.007652 1.706062 0.256280 -0.344650 0.070260 -3.371980 -4.220009 -7.951078 15.646619 -10.859370 39.228267 -1.011576 -5.982622 10.646587 3.427162 -7.494172 -9.634886 -16.071598 5.951657 32.751146 -9.694040 4.523020 -18.845670 -7.851845 1.002316 2.684848 -29.621947 -1.408646 -5.638431 -43.618461 -81.572701 30.620123 -3.418995 3.592478 0.278650 -0.183990 0.275990 -0.024110 1.353221 3.372778 4.825927 19.377062 -0.327936 -8.602451 -128.615719 58.046934 -110.187112 2.339569 -1.731175 0.071650 0.019760 -0.202220 -0.170420 
1.412450 17.029690 -4.742280 -11.688892 -7.043834 -7.737230 -15.250673 13.545875 2.464440 4.298803 -2.423405 -21.405776 0.653727 4.390833 19.830853 -0.325115 3.078393 3.235338 0.540540 0.539160 0.559460 18.345227 -8.734988 4.851317 -6.834685 10.645021 -44.572721 11.304216 -15.929840 56.177665 -1.442192 -8.973431 1.064615 0.278180 -0.448850 0.075390 -3.492688 -4.451877 -8.209636 19.578600 -13.925035 43.340162 -1.218855 -6.939148 9.051098 4.004921 -8.857350 -10.118002 -18.474426 7.329758 31.934244 -10.859860 3.910490 -22.605500 -11.129112 -3.315863 3.362613 -31.492389 0.191164 -8.458056 -43.196275 -62.830589 21.228481 -3.256735 3.554849 0.341740 -0.271390 0.359250 -0.032820 3.602864 8.424138 5.074217 17.550887 2.821334 -10.896927 -131.321123 53.200866 -109.675273 2.293214 -1.759003 0.114450 0.008250 -0.228890 -0.177580 
1.482780 16.981630 -4.821020 -14.522719 -9.361218 -6.301859 -15.327455 13.191337 2.176668 7.016101 -2.245407 -24.109260 1.837902 4.483114 21.724286 -0.320120 3.246514 3.136378 0.558970 0.557030 0.563390 18.429437 -7.782885 5.835519 -10.963454 14.386490 -52.843038 17.510909 -22.265868 63.097303 -2.064903 -11.286852 0.421786 0.278370 -0.483110 0.067260 -3.532090 -4.801776 -8.533453 22.596223 -16.041012 47.211556 -0.904919 -6.597341 6.684540 4.367832 -10.515587 -10.872718 -21.788875 8.907819 30.884974 -11.461880 3.100020 -24.232910 -15.115920 -7.490033 4.753976 -34.311623 2.789883 -9.856266 -41.891135 -50.122329 14.622729 -3.199171 3.436289 0.377120 -0.319540 0.390220 -0.030980 6.917811 14.313628 5.242398 13.880730 6.541731 -12.634677 -133.114229 47.596055 -106.275679 2.236149 -1.747365 0.125460 0.024390 -0.229240 -0.171070 
1.550160 16.895050 -4.879420 -17.254234 -12.511020 -4.562205 -15.409541 12.874403 1.981787 9.697067 -1.730569 -26.889967 3.398642 4.654379 23.917257 -0.293955 3.529291 2.990451 0.566220 0.565380 0.558090 18.486109 -6.958302 6.653686 -16.230670 17.719139 -60.458833 25.392251 -29.739735 67.304437 -2.694393 -13.435480 -0.102104 0.277920 -0.510340 0.053490 -3.553663 -5.084219 -8.850132 25.199484 -17.531965 50.587219 -0.918110 -5.384231 3.704208 4.788330 -11.859967 -11.597180 -24.993598 10.343670 30.733686 -11.715680 2.172490 -24.680470 -19.756985 -11.384273 5.904353 -37.754428 5.022035 -10.635822 -40.812819 -37.535518 8.686536 -3.175743 3.327669 0.394630 -0.358450 0.405240 -0.037470 10.698870 20.273913 5.376916 10.135666 10.797537 -13.434067 -135.484336 41.980254 -102.621553 2.190782 -1.767196 0.135190 0.033160 -0.222480 -0.162260 
